<svg width="56" height="56" viewBox="0 0 56 56" fill="none" xmlns="http://www.w3.org/2000/svg">
<rect opacity="0.3" width="56" height="56" rx="28" fill="#FEB705"/>
<path d="M32.2426 31.989C32.0586 32.168 31.9745 32.426 32.0175 32.678L32.5945 36.025C32.7115 36.704 31.9975 37.222 31.3865 36.902L28.3626 35.319C28.1356 35.2 27.8656 35.2 27.6386 35.319L24.6165 36.9C24.0035 37.221 23.2886 36.702 23.4066 36.022L23.9826 32.677C24.0266 32.424 23.9416 32.167 23.7576 31.988L21.2366 29.542C20.7736 29.093 21.0285 28.308 21.6675 28.216L25.1546 27.712C25.4086 27.675 25.6275 27.516 25.7415 27.287L27.2515 24.24C27.5575 23.622 28.4416 23.622 28.7486 24.24L30.2586 27.287C30.3726 27.516 30.5915 27.675 30.8455 27.712L34.3326 28.216C34.9716 28.309 35.2276 29.093 34.7636 29.542L32.2426 31.989ZM27.9996 21.75C28.4136 21.75 28.7496 21.414 28.7496 21V19C28.7496 18.586 28.4136 18.25 27.9996 18.25C27.5856 18.25 27.2496 18.586 27.2496 19V21C27.2496 21.414 27.5856 21.75 27.9996 21.75ZM33.9996 25.75C34.4136 25.75 34.7496 25.414 34.7496 25V19C34.7496 18.586 34.4136 18.25 33.9996 18.25C33.5856 18.25 33.2496 18.586 33.2496 19V25C33.2496 25.414 33.5856 25.75 33.9996 25.75ZM21.9996 25.75C22.4136 25.75 22.7496 25.414 22.7496 25V19C22.7496 18.586 22.4136 18.25 21.9996 18.25C21.5856 18.25 21.2496 18.586 21.2496 19V25C21.2496 25.414 21.5856 25.75 21.9996 25.75Z" fill="#FA8502"/>
</svg>
