<svg width="56" height="56" viewBox="0 0 56 56" fill="none" xmlns="http://www.w3.org/2000/svg">
<rect opacity="0.3" width="56" height="56" rx="28" fill="#FEB705"/>
<path d="M38 36.25H37.5V27C37.5 25.782 36.938 25.1179 35.822 25.0139C35.65 24.9979 35.5 25.1451 35.5 25.3181V36.25H34V22C34 20 33 19 31 19H25C23 19 22 20 22 22V36.25H20.5V25.3181C20.5 25.1451 20.35 24.9979 20.178 25.0139C19.062 25.1179 18.5 25.782 18.5 27V36.25H18C17.586 36.25 17.25 36.586 17.25 37C17.25 37.414 17.586 37.75 18 37.75H38C38.414 37.75 38.75 37.414 38.75 37C38.75 36.586 38.414 36.25 38 36.25ZM25.75 23C25.75 22.586 26.086 22.25 26.5 22.25C26.914 22.25 27.25 22.586 27.25 23V24.25H28.75V23C28.75 22.586 29.086 22.25 29.5 22.25C29.914 22.25 30.25 22.586 30.25 23V27C30.25 27.414 29.914 27.75 29.5 27.75C29.086 27.75 28.75 27.414 28.75 27V25.75H27.25V27C27.25 27.414 26.914 27.75 26.5 27.75C26.086 27.75 25.75 27.414 25.75 27V23ZM26 33C26 31.896 26.896 31 28 31C29.104 31 30 31.896 30 33V36.25H26V33Z" fill="#FA8502"/>
</svg>
