<svg width="40" height="40" viewBox="0 0 40 40" fill="none" xmlns="http://www.w3.org/2000/svg">
<path d="M0 8C0 3.58172 3.58172 0 8 0H32C36.4183 0 40 3.58172 40 8V32C40 36.4183 36.4183 40 32 40H8C3.58172 40 0 36.4183 0 32V8Z" fill="#209DBD"/>
<path d="M16.667 14.9997L20.0003 11.6663M20.0003 11.6663L23.3337 14.9997M20.0003 11.6663L20.0003 23.333" stroke="white" stroke-width="1.5" stroke-linecap="round" stroke-linejoin="round"/>
<path d="M25.2042 17.5C26.1191 18.6413 26.6663 20.0901 26.6663 21.6667C26.6663 25.3486 23.6816 28.3333 19.9997 28.3333C16.3178 28.3333 13.333 25.3486 13.333 21.6667C13.333 20.0901 13.8803 18.6413 14.7952 17.5" stroke="white" stroke-width="1.5" stroke-linecap="round"/>
</svg>
