<svg width="84" height="84" viewBox="0 0 84 84" fill="none" xmlns="http://www.w3.org/2000/svg">
<path d="M42 0.333328C19 0.333328 0.333344 19 0.333344 42C0.333344 65 19 83.6667 42 83.6667C65 83.6667 83.6667 65 83.6667 42C83.6667 19 65 0.333328 42 0.333328ZM58.7917 34.5L39.3333 53.9166C38.7499 54.5416 37.9583 54.8334 37.125 54.8334C36.3333 54.8334 35.5416 54.5416 34.9166 53.9166L25.2083 44.2085C24 43.0001 24 40.9999 25.2083 39.7915C26.4167 38.5832 28.4167 38.5832 29.625 39.7915L37.125 47.2917L54.375 30.0834C55.5833 28.8334 57.5833 28.8334 58.7917 30.0834C60 31.2917 60 33.25 58.7917 34.5Z" fill="#219653"/>
</svg>
