<svg width="104" height="104" viewBox="0 0 104 104" fill="none" xmlns="http://www.w3.org/2000/svg">
<g clip-path="url(#clip0_109_2622)">
<path fill-rule="evenodd" clip-rule="evenodd" d="M1.99992 1.99992H103V103H1.99992V1.99992Z" fill="#E4EFF9"/>
<path d="M60.5 42.0833H43.5C40.6667 42.0833 39.25 43.5 39.25 46.3333V59.0833C39.25 61.9167 40.6667 63.3333 43.5 63.3333H60.5C63.3333 63.3333 64.75 61.9167 64.75 59.0833V46.3333C64.75 43.5 63.3333 42.0833 60.5 42.0833ZM60.4163 48.6085L53.4578 53.6688C53.0215 53.9862 52.51 54.1449 52 54.1449C51.49 54.1449 50.9771 53.9862 50.5422 53.6703L43.5837 48.6085C43.1091 48.2643 43.0042 47.5984 43.3499 47.1238C43.6941 46.6507 44.3555 46.543 44.8344 46.8901L51.7932 51.9504C51.9178 52.0397 52.0835 52.0411 52.2082 51.9504L59.167 46.8901C59.6444 46.543 60.3072 46.6507 60.6515 47.1238C60.9972 47.5998 60.8909 48.2643 60.4163 48.6085Z" fill="#209DBD"/>
</g>
<defs>
<clipPath id="clip0_109_2622">
<rect width="104" height="104" rx="20" fill="white"/>
</clipPath>
</defs>
</svg>
