<svg width="103" height="104" viewBox="0 0 103 104" fill="none" xmlns="http://www.w3.org/2000/svg">
<g clip-path="url(#clip0_109_2627)">
<path fill-rule="evenodd" clip-rule="evenodd" d="M1.00003 1.99992H102V103H1.00003V1.99992Z" fill="#E4EFF9"/>
<path d="M58.969 55.0798L62.7133 57.3125C63.4868 57.7743 63.8861 58.6725 63.7091 59.5565C62.9851 63.1818 59.3444 65.5051 55.7787 64.5262C47.3651 62.217 40.793 55.6649 38.4754 47.2329C37.495 43.6657 39.8157 40.0221 43.4424 39.2967L43.4662 39.2925C44.3516 39.1154 45.2543 39.5163 45.7147 40.2941L47.9289 44.0327C48.7166 45.3615 48.3254 47.0756 47.0376 47.9313L44.6847 49.4967C46.345 53.4733 49.5183 56.6594 53.4835 58.3169L55.0631 55.9582C55.9258 54.6732 57.6401 54.2879 58.969 55.0798ZM59.146 49.1667C59.146 46.237 56.7618 43.8541 53.8335 43.8541C53.247 43.8541 52.771 44.3302 52.771 44.9167C52.771 45.5031 53.247 45.9792 53.8335 45.9792C55.5902 45.9792 57.021 47.4086 57.021 49.1667C57.021 49.7531 57.497 50.2292 58.0835 50.2292C58.67 50.2292 59.146 49.7531 59.146 49.1667ZM62.3335 50.2292C61.747 50.2292 61.271 49.7531 61.271 49.1667C61.271 45.0654 57.9348 41.7291 53.8335 41.7291C53.247 41.7291 52.771 41.2531 52.771 40.6666C52.771 40.0801 53.247 39.6041 53.8335 39.6041C59.1064 39.6041 63.396 43.8938 63.396 49.1667C63.396 49.7531 62.92 50.2292 62.3335 50.2292Z" fill="#209DBD"/>
</g>
<defs>
<clipPath id="clip0_109_2627">
<rect width="103" height="104" rx="20" fill="white"/>
</clipPath>
</defs>
</svg>
