<svg width="104" height="104" viewBox="0 0 104 104" fill="none" xmlns="http://www.w3.org/2000/svg">
<g clip-path="url(#clip0_109_2617)">
<path fill-rule="evenodd" clip-rule="evenodd" d="M1.99992 1.99992H103V103H1.99992V1.99992Z" fill="#E4EFF9"/>
<path d="M52.0007 38.5417C45.3607 38.5417 39.959 43.9434 39.959 50.5833C39.959 57.6426 46.5167 61.9747 50.856 64.8406L51.6068 65.3393C51.7258 65.4187 51.8632 65.4583 51.9992 65.4583C52.1352 65.4583 52.2727 65.4187 52.3917 65.3393L53.1425 64.8406C57.4817 61.9747 64.0395 57.6426 64.0395 50.5833C64.0423 43.9434 58.6406 38.5417 52.0007 38.5417ZM52.0007 54.125C50.0442 54.125 48.459 52.5397 48.459 50.5833C48.459 48.6269 50.0442 47.0417 52.0007 47.0417C53.9571 47.0417 55.5423 48.6269 55.5423 50.5833C55.5423 52.5397 53.9571 54.125 52.0007 54.125Z" fill="#209DBD"/>
</g>
<defs>
<clipPath id="clip0_109_2617">
<rect width="104" height="104" rx="20" fill="white"/>
</clipPath>
</defs>
</svg>
