<svg width="40" height="40" viewBox="0 0 40 40" fill="none" xmlns="http://www.w3.org/2000/svg">
<path d="M0 8C0 3.58172 3.58172 0 8 0H32C36.4183 0 40 3.58172 40 8V32C40 36.4183 36.4183 40 32 40H8C3.58172 40 0 36.4183 0 32V8Z" fill="#209DBD"/>
<path d="M17.5 15L17.5 15.8333C17.5 17.214 18.6193 18.3333 20 18.3333C21.3807 18.3333 22.5 17.214 22.5 15.8333V15" stroke="white" stroke-width="1.5" stroke-linecap="round" stroke-linejoin="round"/>
<path d="M23.0098 12.5H16.9906C15.3612 12.5 13.9705 13.678 13.7026 15.2853L12.3138 23.6187C11.9751 25.6504 13.5419 27.5 15.6017 27.5H24.3987C26.4585 27.5 28.0253 25.6504 27.6866 23.6187L26.2978 15.2853C26.0299 13.678 24.6392 12.5 23.0098 12.5Z" stroke="white" stroke-width="1.5" stroke-linejoin="round"/>
</svg>
