<svg width="40" height="40" viewBox="0 0 40 40" fill="none" xmlns="http://www.w3.org/2000/svg">
<path d="M0 8C0 3.58172 3.58172 0 8 0H32C36.4183 0 40 3.58172 40 8V32C40 36.4183 36.4183 40 32 40H8C3.58172 40 0 36.4183 0 32V8Z" fill="#209DBD"/>
<path d="M26.6673 15.833L20.0007 19.1663L13.334 15.833" stroke="white" stroke-width="1.5" stroke-linecap="round" stroke-linejoin="round"/>
<path d="M25.5205 13.89L21.3538 11.9656C20.4919 11.5675 19.5081 11.5675 18.6462 11.9656L14.4795 13.89C13.2758 14.446 12.5 15.6865 12.5 17.0555V22.9452C12.5 24.3141 13.2758 25.5547 14.4795 26.1106L18.6462 28.0351C19.5081 28.4332 20.4919 28.4332 21.3538 28.0351L25.5205 26.1106C26.7242 25.5547 27.5 24.3141 27.5 22.9452V17.0555C27.5 15.6865 26.7242 14.446 25.5205 13.89Z" stroke="white" stroke-width="1.5" stroke-linecap="round" stroke-linejoin="round"/>
<path d="M20 19.167V28.3337" stroke="white" stroke-width="1.5" stroke-linecap="round" stroke-linejoin="round"/>
</svg>
