<svg width="40" height="40" viewBox="0 0 40 40" fill="none" xmlns="http://www.w3.org/2000/svg">
<path d="M0 8C0 3.58172 3.58172 0 8 0H32C36.4183 0 40 3.58172 40 8V32C40 36.4183 36.4183 40 32 40H8C3.58172 40 0 36.4183 0 32V8Z" fill="#209DBD"/>
<ellipse cx="18.3333" cy="24.5837" rx="5.83333" ry="2.91667" stroke="white" stroke-width="1.5" stroke-linejoin="round"/>
<circle cx="18.3333" cy="15.8333" r="3.33333" stroke="white" stroke-width="1.5" stroke-linejoin="round"/>
<path fill-rule="evenodd" clip-rule="evenodd" d="M22.6167 18.4129C22.3089 18.9229 21.9127 19.3735 21.4492 19.7435C21.7786 19.8558 22.1318 19.9168 22.4992 19.9168C24.2941 19.9168 25.7492 18.4617 25.7492 16.6668C25.7492 14.9443 24.4091 13.5347 22.7146 13.4238C22.9961 13.9346 23.1908 14.4998 23.2791 15.0998C23.8541 15.3865 24.2492 15.9805 24.2492 16.6668C24.2492 17.5938 23.5284 18.3525 22.6167 18.4129Z" fill="white"/>
<path fill-rule="evenodd" clip-rule="evenodd" d="M25.3239 26.2463C25.6527 25.7307 25.8331 25.1697 25.8331 24.583C25.8331 24.5533 25.8326 24.5237 25.8317 24.4941C26.1841 24.3387 26.43 24.1745 26.5805 24.0263C26.7401 23.8691 26.7497 23.776 26.7497 23.7497C26.7497 23.7233 26.7401 23.6303 26.5805 23.473C26.4182 23.3132 26.145 23.1347 25.7468 22.9688C25.5895 22.9033 25.4183 22.842 25.2346 22.7859C24.716 22.043 23.8855 21.4009 22.8438 20.9209C24.1671 20.9562 25.3877 21.1942 26.3237 21.5842C26.8304 21.7953 27.2894 22.0658 27.6332 22.4044C27.9796 22.7457 28.2497 23.2007 28.2497 23.7497C28.2497 24.2986 27.9796 24.7536 27.6332 25.0949C27.2894 25.4335 26.8304 25.704 26.3237 25.9151C26.0186 26.0422 25.6833 26.1532 25.3239 26.2463Z" fill="white"/>
</svg>
