<svg width="24" height="24" viewBox="0 0 24 24" fill="none" xmlns="http://www.w3.org/2000/svg">
<path d="M16 21.7502H6C3.582 21.7502 2.25 20.4182 2.25 18.0002V8.00022C2.25 5.58222 3.582 4.25022 6 4.25022H9C9.414 4.25022 9.75 4.58622 9.75 5.00022C9.75 5.41422 9.414 5.75022 9 5.75022H6C4.423 5.75022 3.75 6.42322 3.75 8.00022V18.0002C3.75 19.5772 4.423 20.2502 6 20.2502H16C17.577 20.2502 18.25 19.5772 18.25 18.0002V15.0002C18.25 14.5862 18.586 14.2502 19 14.2502C19.414 14.2502 19.75 14.5862 19.75 15.0002V18.0002C19.75 20.4182 18.418 21.7502 16 21.7502ZM20.58 5.03022L18.97 3.42023C18.4 2.86023 17.49 2.86021 16.92 3.43021L15.57 4.79023L19.21 8.43021L20.57 7.08021C21.14 6.51021 21.14 5.60022 20.58 5.03022ZM14.51 5.85023L8 12.3902V16.0002H11.61L18.15 9.49021L14.51 5.85023Z" fill="white"/>
</svg>
