<svg width="42" height="42" viewBox="0 0 42 42" fill="none" xmlns="http://www.w3.org/2000/svg">
<rect width="42" height="42" rx="21" fill="#F9F8FF"/>
<g clip-path="url(#clip0_8_6399)">
<path d="M28.125 19.5C29.5747 19.5 30.75 18.3247 30.75 16.875C30.75 15.4253 29.5747 14.25 28.125 14.25C26.6753 14.25 25.5 15.4253 25.5 16.875C25.5 18.3247 26.6753 19.5 28.125 19.5Z" stroke="#6F51EC" stroke-width="1.5" stroke-linecap="round" stroke-linejoin="round"/>
<path d="M13.5 28.5H10.5C10.3011 28.5 10.1103 28.421 9.96967 28.2803C9.82902 28.1397 9.75 27.9489 9.75 27.75V24C9.75 23.8011 9.82902 23.6103 9.96967 23.4697C10.1103 23.329 10.3011 23.25 10.5 23.25H13.5" stroke="#6F51EC" stroke-width="1.5" stroke-linecap="round" stroke-linejoin="round"/>
<path d="M19.5 24H22.5L28.7812 22.5553C29.0122 22.492 29.2546 22.4829 29.4897 22.5285C29.7247 22.5741 29.9461 22.6734 30.1365 22.8185C30.327 22.9636 30.4814 23.1507 30.5878 23.3652C30.6942 23.5797 30.7497 23.8159 30.75 24.0553C30.7501 24.3444 30.6697 24.6279 30.5176 24.8738C30.3656 25.1197 30.148 25.3184 29.8894 25.4475L26.25 27L20.25 28.5H13.5V23.25L15.8438 20.9063C16.0532 20.6975 16.3018 20.5321 16.5753 20.4195C16.8488 20.3069 17.1418 20.2493 17.4375 20.25H22.125C22.6223 20.25 23.0992 20.4476 23.4508 20.7992C23.8025 21.1508 24 21.6277 24 22.125C24 22.6223 23.8025 23.0992 23.4508 23.4508C23.0992 23.8025 22.6223 24 22.125 24H19.5Z" stroke="#6F51EC" stroke-width="1.5" stroke-linecap="round" stroke-linejoin="round"/>
<path d="M25.5 16.9959C24.9905 17.2369 24.417 17.3075 23.8643 17.1973C23.3116 17.0871 22.8091 16.8019 22.431 16.3839C22.0529 15.966 21.8194 15.4375 21.765 14.8765C21.7105 14.3156 21.8381 13.752 22.1287 13.2692C22.4194 12.7863 22.8577 12.4098 23.3789 12.1954C23.9001 11.981 24.4764 11.94 25.0227 12.0784C25.569 12.2169 26.0563 12.5276 26.4123 12.9644C26.7684 13.4012 26.9745 13.9411 27 14.5041" stroke="#6F51EC" stroke-width="1.5" stroke-linecap="round" stroke-linejoin="round"/>
</g>
<defs>
<clipPath id="clip0_8_6399">
<rect width="24" height="24" fill="white" transform="translate(9 9)"/>
</clipPath>
</defs>
</svg>
