<svg width="20" height="19" viewBox="0 0 20 19" fill="none" xmlns="http://www.w3.org/2000/svg">
<path d="M9.99901 18.75C9.89301 18.75 9.78697 18.7281 9.68797 18.6831C9.36097 18.5341 1.66501 14.9649 0.431012 8.60889C-0.0459881 6.14989 0.433041 3.75112 1.71104 2.19312C2.74704 0.931115 4.23497 0.258977 6.01597 0.250977C6.02497 0.250977 6.034 0.250977 6.041 0.250977C8.073 0.250977 9.31203 1.40807 9.99803 2.39307C10.684 1.40907 11.9231 0.250977 13.9551 0.250977C13.9631 0.250977 13.972 0.250977 13.98 0.250977C15.762 0.259977 17.251 0.931115 18.287 2.19312C19.564 3.75012 20.0419 6.14911 19.5639 8.61011C18.3319 14.9661 10.635 18.5351 10.308 18.6841C10.211 18.7281 10.105 18.75 9.99901 18.75ZM6.041 1.75C6.035 1.75 6.02903 1.75 6.02403 1.75C4.68603 1.756 3.62605 2.22604 2.87205 3.14404C1.87305 4.36104 1.51203 6.297 1.90403 8.323C2.86103 13.258 8.59203 16.449 9.99803 17.165C11.404 16.448 17.138 13.248 18.093 8.323C18.487 6.296 18.126 4.36004 17.129 3.14404C16.375 2.22604 15.315 1.75698 13.974 1.75098C13.969 1.75098 13.963 1.75098 13.957 1.75098C11.562 1.75098 10.719 4.20207 10.711 4.22607C10.608 4.53307 10.322 4.73901 9.99901 4.73901C9.67601 4.73901 9.38997 4.53207 9.28697 4.22607C9.25397 4.12707 8.412 1.75 6.041 1.75ZM11.623 12.916L13.4 10.25H14.999C15.413 10.25 15.749 9.914 15.749 9.5C15.749 9.086 15.413 8.75 14.999 8.75H12.999C12.748 8.75 12.514 8.87498 12.375 9.08398L11.2261 10.8081L9.71104 6.26294C9.62004 5.99194 9.38298 5.79508 9.09898 5.75708C8.81698 5.71608 8.53498 5.84498 8.37498 6.08398L6.598 8.75H4.99901C4.58501 8.75 4.24901 9.086 4.24901 9.5C4.24901 9.914 4.58501 10.25 4.99901 10.25H6.99901C7.25001 10.25 7.48403 10.125 7.62303 9.91602L8.77195 8.19189L10.287 12.7371C10.378 13.0081 10.615 13.2049 10.899 13.2429C10.932 13.2479 10.965 13.25 10.999 13.25C11.248 13.25 11.482 13.126 11.623 12.916Z" fill="#110D06"/>
</svg>
