<svg width="56" height="56" viewBox="0 0 56 56" fill="none" xmlns="http://www.w3.org/2000/svg">
<rect opacity="0.3" width="56" height="56" rx="28" fill="#FEB705"/>
<path fill-rule="evenodd" clip-rule="evenodd" d="M28 18C22.477 18 18 22.477 18 28C18 33.523 22.477 38 28 38C33.523 38 38 33.523 38 28C38 22.477 33.523 18 28 18ZM31.53 31.53C31.384 31.676 31.192 31.75 31 31.75C30.808 31.75 30.616 31.677 30.47 31.53L27.47 28.53C27.329 28.389 27.25 28.198 27.25 28V23C27.25 22.586 27.586 22.25 28 22.25C28.414 22.25 28.75 22.586 28.75 23V27.689L31.53 30.469C31.823 30.763 31.823 31.237 31.53 31.53Z" fill="#FA8502"/>
</svg>
