<svg width="56" height="56" viewBox="0 0 56 56" fill="none" xmlns="http://www.w3.org/2000/svg">
<ellipse opacity="0.3" cx="27.9865" cy="28" rx="27.9865" ry="28" fill="#FA8502"/>
<path fill-rule="evenodd" clip-rule="evenodd" d="M37.7194 36.47L33.3494 32.1C34.4994 30.71 35.1895 28.94 35.1895 27C35.1895 22.58 31.6095 19 27.1895 19C22.7695 19 19.1895 22.58 19.1895 27C19.1895 31.41 22.7695 35 27.1895 35C29.1295 35 30.9094 34.31 32.2894 33.16L36.6594 37.53C36.8094 37.68 36.9995 37.75 37.1895 37.75C37.3795 37.75 37.5694 37.68 37.7194 37.53C38.0094 37.24 38.0094 36.76 37.7194 36.47ZM27.9995 29.25H23.9995C23.5895 29.25 23.2495 28.91 23.2495 28.5C23.2495 28.09 23.5895 27.75 23.9995 27.75H27.9995C28.4095 27.75 28.7495 28.09 28.7495 28.5C28.7495 28.91 28.4095 29.25 27.9995 29.25ZM29.9995 26.25H23.9995C23.5895 26.25 23.2495 25.91 23.2495 25.5C23.2495 25.09 23.5895 24.75 23.9995 24.75H29.9995C30.4095 24.75 30.7495 25.09 30.7495 25.5C30.7495 25.91 30.4095 26.25 29.9995 26.25Z" fill="#FA8502"/>
</svg>
