<svg width="56" height="56" viewBox="0 0 56 56" fill="none" xmlns="http://www.w3.org/2000/svg">
<rect opacity="0.3" width="56" height="56" rx="28" fill="#FEB705"/>
<path d="M34.75 34.35C34.75 36.382 33.619 37.5 31.567 37.5H24.433C22.381 37.5 21.25 36.381 21.25 34.35C21.25 32.062 22.55 29.39 26.215 29.39H29.7841C33.4501 29.389 34.75 32.062 34.75 34.35ZM28.0081 27.512C29.9501 27.512 31.5291 25.939 31.5291 24.006C31.5291 22.072 29.9491 20.5 28.0081 20.5C26.0671 20.5 24.488 22.073 24.488 24.006C24.488 25.939 26.0661 27.512 28.0081 27.512ZM34.79 24.9301H33.1801C33.0401 24.9301 32.92 25.03 32.89 25.16C32.67 26.11 32.17 26.96 31.48 27.61C31.31 27.77 31.41 28.05 31.64 28.11C33.41 28.53 34.64 29.57 35.37 30.89C35.42 31 35.52 31.0699 35.65 31.0699H36.0699C37.6399 31.0699 38.5 30.21 38.5 28.65C38.5 26.94 37.53 24.9301 34.79 24.9301ZM33.51 18.5C32.512 18.5 31.641 19.047 31.184 19.856C31.147 19.922 31.149 19.995 31.163 20.058C31.178 20.124 31.207 20.1591 31.269 20.2111C32.248 21.0361 32.9011 22.231 33.0081 23.582C33.0141 23.658 33.0401 23.705 33.0861 23.754C33.1321 23.803 33.201 23.8329 33.292 23.8409C33.363 23.8469 33.436 23.851 33.51 23.851C34.98 23.851 36.1801 22.651 36.1801 21.171C36.1801 19.7 34.98 18.5 33.51 18.5ZM17.5 28.65C17.5 30.21 18.3601 31.0699 19.9301 31.0699H20.35C20.48 31.0699 20.58 31 20.63 30.89C21.36 29.57 22.59 28.53 24.36 28.11C24.59 28.05 24.69 27.77 24.52 27.61C23.83 26.96 23.33 26.11 23.11 25.16C23.08 25.03 22.9599 24.9301 22.8199 24.9301H21.21C18.47 24.9301 17.5 26.94 17.5 28.65ZM19.8199 21.17C19.8199 22.65 21.02 23.85 22.49 23.85C22.564 23.85 22.637 23.846 22.708 23.84C22.8 23.832 22.8679 23.8021 22.9139 23.7531C22.9599 23.7041 22.9859 23.6571 22.9919 23.5811C23.0989 22.2301 23.752 21.035 24.731 20.21C24.792 20.158 24.822 20.123 24.837 20.057C24.851 19.994 24.853 19.922 24.816 19.855C24.358 19.046 23.488 18.499 22.49 18.499C21.02 18.5 19.8199 19.7 19.8199 21.17Z" fill="#FA8502"/>
</svg>
