<svg width="56" height="56" viewBox="0 0 56 56" fill="none" xmlns="http://www.w3.org/2000/svg">
<ellipse opacity="0.3" cx="27.9865" cy="28" rx="27.9865" ry="28" fill="#FA8502"/>
<path d="M26.48 27.15C26.73 27.26 26.99 27.33 27.25 27.39V36.91C27.09 36.87 26.93 36.81 26.78 36.74L20.78 34.07C19.7 33.59 19 32.52 19 31.33V24.67C19 24.4 19.04 24.13 19.11 23.88L26.48 27.15ZM30.8199 24.92L22.67 21.09L20.78 21.93C20.43 22.08 20.13 22.3 19.87 22.56L27.08 25.77C27.66 26.03 28.33 26.03 28.92 25.77L30.8199 24.92ZM36.13 22.56C35.87 22.3 35.57 22.08 35.22 21.93L29.22 19.26C28.44 18.91 27.56 18.91 26.78 19.26L24.49 20.28L32.64 24.11L36.13 22.56ZM36.89 23.88L33.38 25.44V27.89C33.38 28.3 33.04 28.64 32.63 28.64C32.22 28.64 31.88 28.3 31.88 27.89V26.1L29.52 27.15C29.27 27.25 29.01 27.33 28.75 27.39V36.91C28.91 36.87 29.07 36.81 29.22 36.74L35.22 34.07C36.3 33.59 37 32.52 37 31.33V24.67C37 24.4 36.96 24.13 36.89 23.88Z" fill="#FA8502"/>
</svg>
