<svg width="56" height="56" viewBox="0 0 56 56" fill="none" xmlns="http://www.w3.org/2000/svg">
<ellipse opacity="0.3" cx="27.9865" cy="28" rx="27.9865" ry="28" fill="#FA8502"/>
<path d="M35.4131 37.75H21.4141C21.0001 37.75 20.6641 37.414 20.6641 37C20.6641 36.586 21.0001 36.25 21.4141 36.25H35.4131C35.8271 36.25 36.1631 36.586 36.1631 37C36.1631 37.414 35.8271 37.75 35.4131 37.75ZM24.584 27V32C24.584 32.552 25.032 33 25.584 33H31.584C32.136 33 32.584 32.552 32.584 32V27H35.0071C35.9031 27 36.338 25.906 35.687 25.291L29.4121 19.363C28.9001 18.879 28.0979 18.879 27.5859 19.363L21.311 25.291C20.66 25.906 21.095 27 21.991 27H24.584Z" fill="#FA8502"/>
</svg>
