<svg width="56" height="56" viewBox="0 0 56 56" fill="none" xmlns="http://www.w3.org/2000/svg">
<rect opacity="0.3" width="56" height="56" rx="28" fill="#FEB705"/>
<path d="M36.7 25.75H19.3C19.134 25.75 19 25.884 19 26.05V34C19 36 20 37 22 37H34C36 37 37 36 37 34V26.05C37 25.884 36.866 25.75 36.7 25.75ZM31.03 29.864L27.697 33.197C27.551 33.343 27.359 33.417 27.167 33.417C26.975 33.417 26.783 33.344 26.637 33.197L24.97 31.53C24.677 31.238 24.677 30.762 24.97 30.469C25.263 30.176 25.738 30.176 26.031 30.469L27.168 31.605L29.9709 28.802C30.2639 28.509 30.739 28.509 31.032 28.802C31.325 29.095 31.323 29.571 31.03 29.864ZM37 23.5V23.95C37 24.116 36.866 24.25 36.7 24.25H19.3C19.134 24.25 19 24.116 19 23.95V23.5C19 21.5 20 20.5 22 20.5H23.25V19C23.25 18.59 23.59 18.25 24 18.25C24.41 18.25 24.75 18.59 24.75 19V20.5H31.25V19C31.25 18.59 31.59 18.25 32 18.25C32.41 18.25 32.75 18.59 32.75 19V20.5H34C36 20.5 37 21.5 37 23.5Z" fill="#FA8502"/>
</svg>
