<svg width="90" height="34" viewBox="0 0 90 34" fill="none" xmlns="http://www.w3.org/2000/svg">
<path d="M17.9863 26H0.337891V0.792969H5.38281V20.9551H17.9863V26ZM37.8145 16.4199C37.8145 17.8262 37.5625 19.1387 37.0586 20.3574C36.5547 21.5645 35.8691 22.6133 35.002 23.5039C34.1348 24.3828 33.1152 25.0801 31.9434 25.5957C30.7832 26.0996 29.5352 26.3516 28.1992 26.3516C26.875 26.3516 25.627 26.0996 24.4551 25.5957C23.2949 25.0801 22.2754 24.3828 21.3965 23.5039C20.5293 22.6133 19.8438 21.5645 19.3398 20.3574C18.8359 19.1387 18.584 17.8262 18.584 16.4199C18.584 14.9902 18.8359 13.666 19.3398 12.4473C19.8438 11.2285 20.5293 10.1797 21.3965 9.30078C22.2754 8.41016 23.2949 7.71289 24.4551 7.20898C25.627 6.70508 26.875 6.45312 28.1992 6.45312C29.5352 6.45312 30.7832 6.69336 31.9434 7.17383C33.1152 7.64258 34.1348 8.31641 35.002 9.19531C35.8691 10.0625 36.5547 11.1113 37.0586 12.3418C37.5625 13.5605 37.8145 14.9199 37.8145 16.4199ZM32.9805 16.4199C32.9805 15.6465 32.8516 14.9492 32.5938 14.3281C32.3477 13.6953 32.0078 13.1562 31.5742 12.7109C31.1406 12.2539 30.6309 11.9082 30.0449 11.6738C29.4707 11.4277 28.8555 11.3047 28.1992 11.3047C27.543 11.3047 26.9219 11.4277 26.3359 11.6738C25.7617 11.9082 25.2578 12.2539 24.8242 12.7109C24.4023 13.1562 24.0684 13.6953 23.8223 14.3281C23.5762 14.9492 23.4531 15.6465 23.4531 16.4199C23.4531 17.1465 23.5762 17.8203 23.8223 18.4414C24.0684 19.0625 24.4023 19.6016 24.8242 20.0586C25.2578 20.5156 25.7617 20.8789 26.3359 21.1484C26.9219 21.4062 27.543 21.5352 28.1992 21.5352C28.8555 21.5352 29.4707 21.4121 30.0449 21.166C30.6309 20.9199 31.1406 20.5742 31.5742 20.1289C32.0078 19.6836 32.3477 19.1445 32.5938 18.5117C32.8516 17.8789 32.9805 17.1816 32.9805 16.4199ZM53.8633 16.4199C53.8633 15.7637 53.7344 15.1309 53.4766 14.5215C53.2305 13.9004 52.8906 13.3555 52.457 12.8867C52.0234 12.4062 51.5137 12.0254 50.9277 11.7441C50.3535 11.4512 49.7383 11.3047 49.082 11.3047C48.4258 11.3047 47.8047 11.416 47.2188 11.6387C46.6445 11.8613 46.1406 12.1895 45.707 12.623C45.2852 13.0566 44.9512 13.5957 44.7051 14.2402C44.459 14.873 44.3359 15.5996 44.3359 16.4199C44.3359 17.2051 44.459 17.9141 44.7051 18.5469C44.9512 19.168 45.2852 19.7012 45.707 20.1465C46.1406 20.5918 46.6445 20.9375 47.2188 21.1836C47.8047 21.418 48.4258 21.5352 49.082 21.5352C49.7383 21.5352 50.3535 21.3945 50.9277 21.1133C51.5137 20.8203 52.0234 20.4395 52.457 19.9707C52.8906 19.4902 53.2305 18.9453 53.4766 18.3359C53.7344 17.7148 53.8633 17.0762 53.8633 16.4199ZM58.6973 23.627C58.6973 24.9512 58.4453 26.1934 57.9414 27.3535C57.4375 28.5137 56.7461 29.5273 55.8672 30.3945C55 31.2617 53.9805 31.9473 52.8086 32.4512C51.6484 32.9551 50.4062 33.207 49.082 33.207L46.6738 33.1719V28.373L49.0469 28.4082C49.7969 28.4082 50.4355 28.3086 50.9629 28.1094C51.4902 27.9219 51.9355 27.6582 52.2988 27.3184C52.6621 26.9902 52.9492 26.6094 53.1602 26.1758C53.3828 25.7422 53.5586 25.2852 53.6875 24.8047C53.5 25.1094 53.2305 25.3613 52.8789 25.5605C52.5273 25.748 52.1348 25.9004 51.7012 26.0176C51.2793 26.1465 50.834 26.2344 50.3652 26.2812C49.9082 26.3281 49.4805 26.3516 49.082 26.3516C47.7578 26.3516 46.5098 26.123 45.3379 25.666C44.1777 25.209 43.1582 24.5586 42.2793 23.7148C41.4121 22.8594 40.7266 21.8164 40.2227 20.5859C39.7188 19.3555 39.4668 17.9668 39.4668 16.4199C39.4668 15.002 39.7188 13.6836 40.2227 12.4648C40.7266 11.2461 41.4121 10.1914 42.2793 9.30078C43.1582 8.41016 44.1777 7.71289 45.3379 7.20898C46.5098 6.70508 47.7578 6.45312 49.082 6.45312C49.6914 6.45312 50.2949 6.5293 50.8926 6.68164C51.4902 6.83398 52.0703 7.04492 52.6328 7.31445C53.1953 7.58398 53.7285 7.90039 54.2324 8.26367C54.748 8.62695 55.2285 9.01953 55.6738 9.44141L57.5371 7.20898H58.6973V23.627ZM80.5645 16.4199C80.5645 17.8262 80.3125 19.1387 79.8086 20.3574C79.3047 21.5645 78.6191 22.6133 77.752 23.5039C76.8848 24.3828 75.8652 25.0801 74.6934 25.5957C73.5332 26.0996 72.2852 26.3516 70.9492 26.3516C69.625 26.3516 68.377 26.0996 67.2051 25.5957C66.0449 25.0801 65.0254 24.3828 64.1465 23.5039C63.2793 22.6133 62.5938 21.5645 62.0898 20.3574C61.5859 19.1387 61.334 17.8262 61.334 16.4199C61.334 14.9902 61.5859 13.666 62.0898 12.4473C62.5938 11.2285 63.2793 10.1797 64.1465 9.30078C65.0254 8.41016 66.0449 7.71289 67.2051 7.20898C68.377 6.70508 69.625 6.45312 70.9492 6.45312C72.2852 6.45312 73.5332 6.69336 74.6934 7.17383C75.8652 7.64258 76.8848 8.31641 77.752 9.19531C78.6191 10.0625 79.3047 11.1113 79.8086 12.3418C80.3125 13.5605 80.5645 14.9199 80.5645 16.4199ZM75.7305 16.4199C75.7305 15.6465 75.6016 14.9492 75.3438 14.3281C75.0977 13.6953 74.7578 13.1562 74.3242 12.7109C73.8906 12.2539 73.3809 11.9082 72.7949 11.6738C72.2207 11.4277 71.6055 11.3047 70.9492 11.3047C70.293 11.3047 69.6719 11.4277 69.0859 11.6738C68.5117 11.9082 68.0078 12.2539 67.5742 12.7109C67.1523 13.1562 66.8184 13.6953 66.5723 14.3281C66.3262 14.9492 66.2031 15.6465 66.2031 16.4199C66.2031 17.1465 66.3262 17.8203 66.5723 18.4414C66.8184 19.0625 67.1523 19.6016 67.5742 20.0586C68.0078 20.5156 68.5117 20.8789 69.0859 21.1484C69.6719 21.4062 70.293 21.5352 70.9492 21.5352C71.6055 21.5352 72.2207 21.4121 72.7949 21.166C73.3809 20.9199 73.8906 20.5742 74.3242 20.1289C74.7578 19.6836 75.0977 19.1445 75.3438 18.5117C75.6016 17.8789 75.7305 17.1816 75.7305 16.4199ZM89.125 24.207C89.125 24.6289 89.0488 25.0273 88.8965 25.4023C88.7441 25.7656 88.5332 26.082 88.2637 26.3516C87.9941 26.6211 87.6777 26.832 87.3145 26.9844C86.9512 27.1484 86.5586 27.2305 86.1367 27.2305C85.7266 27.2305 85.334 27.1484 84.959 26.9844C84.5957 26.832 84.2734 26.6211 83.9922 26.3516C83.7227 26.082 83.5059 25.7656 83.3418 25.4023C83.1895 25.0273 83.1133 24.6289 83.1133 24.207C83.1133 23.7969 83.1895 23.4102 83.3418 23.0469C83.5059 22.6836 83.7227 22.3672 83.9922 22.0977C84.2734 21.8281 84.5957 21.6172 84.959 21.4648C85.334 21.3008 85.7266 21.2188 86.1367 21.2188C86.5586 21.2188 86.9512 21.3008 87.3145 21.4648C87.6777 21.6172 87.9941 21.8281 88.2637 22.0977C88.5332 22.3672 88.7441 22.6836 88.8965 23.0469C89.0488 23.4102 89.125 23.7969 89.125 24.207Z" fill="#013147"/>
</svg>
