<svg width="75" height="227" viewBox="0 0 75 227" fill="none" xmlns="http://www.w3.org/2000/svg">
<path d="M0 151C19.8912 151 38.9678 143.046 53.033 128.887C67.0982 114.728 75 95.5239 75 75.5C75 55.4762 67.0982 36.2724 53.033 22.1134C38.9678 7.95445 19.8913 0 2.27366e-05 0L7.57887e-06 75.5L0 151Z" fill="#209DBD"/>
<path d="M0 112C9.48456 112 18.5807 108.207 25.2873 101.456C31.9939 94.7045 35.7616 85.5478 35.7616 76C35.7616 66.4522 31.9939 57.2955 25.2873 50.5442C18.5807 43.7929 9.48457 40 1.08413e-05 40L3.61376e-06 76L0 112Z" fill="#013147"/>
<path d="M0 302C19.8912 302 38.9678 294.046 53.033 279.887C67.0982 265.728 75 246.524 75 226.5C75 206.476 67.0982 187.272 53.033 173.113C38.9678 158.954 19.8913 151 2.27366e-05 151L7.57887e-06 226.5L0 302Z" fill="#FA8502"/>
</svg>
