<svg width="232" height="232" viewBox="0 0 232 232" fill="none" xmlns="http://www.w3.org/2000/svg">
<path d="M150.387 150.076C128.676 171.788 116.479 201.234 116.479 231.939L232.25 231.939L232.25 116.168C201.545 116.168 172.098 128.365 150.387 150.076Z" fill="#013147"/>
<path d="M181.088 186.745C167.586 198.747 160 215.026 160 232L232 232L232 168C212.904 168 194.591 174.743 181.088 186.745Z" fill="white"/>
<path d="M198.341 34.3046C176.63 12.5933 147.183 0.395993 116.479 0.395996L116.479 116.167L232.25 116.167C232.25 85.4629 220.053 56.016 198.341 34.3046Z" fill="#209DBD"/>
<path d="M34.6157 150.076C12.9043 171.787 0.707029 201.234 0.707031 231.939L116.478 231.939L116.478 116.167C85.7739 116.167 56.327 128.365 34.6157 150.076Z" fill="#209DBD"/>
</svg>
