<svg width="130" height="227" viewBox="0 0 130 227" fill="none" xmlns="http://www.w3.org/2000/svg">
<path d="M130 151C110.053 151 90.9227 143.046 76.818 128.887C62.7132 114.728 54.7893 95.5239 54.7893 75.5C54.7893 55.4762 62.7132 36.2724 76.818 22.1134C90.9227 7.95445 110.053 0 130 0L130 75.5L130 151Z" fill="#209DBD"/>
<path d="M0 227C19.9471 227 39.0773 219.046 53.182 204.887C67.2868 190.728 75.2107 171.524 75.2107 151.5C75.2107 131.476 67.2868 112.272 53.182 98.1134C39.0773 83.9545 19.9471 76 2.28005e-05 76L7.60016e-06 151.5L0 227Z" fill="#FA8502"/>
<path d="M0 188C9.51121 188 18.6329 184.207 25.3583 177.456C32.0838 170.705 35.8621 161.548 35.8621 152C35.8621 142.452 32.0838 133.295 25.3583 126.544C18.6329 119.793 9.51122 116 1.08718e-05 116L3.62392e-06 152L0 188Z" fill="#013147"/>
</svg>
