<svg width="16" height="16" viewBox="0 0 16 16" fill="none" xmlns="http://www.w3.org/2000/svg">
<path opacity="0.5" d="M16 8C16 12.4184 12.4184 16 8 16C3.5816 16 0 12.4184 0 8C0 3.5816 3.5816 0 8 0C12.4184 0 16 3.5816 16 8Z" fill="white"/>
<path d="M5.5755 5.57524C5.688 5.46288 5.8405 5.39977 5.9995 5.39977C6.1585 5.39977 6.311 5.46288 6.4235 5.57524L7.9995 7.15124L9.5755 5.57524C9.63043 5.5163 9.69667 5.46901 9.77027 5.43622C9.84387 5.40343 9.92332 5.38579 10.0039 5.38437C10.0844 5.38295 10.1645 5.39777 10.2392 5.42795C10.3139 5.45812 10.3818 5.50304 10.4387 5.56001C10.4957 5.61699 10.5406 5.68486 10.5708 5.75957C10.601 5.83428 10.6158 5.9143 10.6144 5.99486C10.6129 6.07542 10.5953 6.15488 10.5625 6.22847C10.5297 6.30207 10.4824 6.36831 10.4235 6.42324L8.8475 7.99924L10.4235 9.57524C10.5295 9.68898 10.5872 9.83942 10.5844 9.99486C10.5817 10.1503 10.5187 10.2986 10.4088 10.4085C10.2989 10.5185 10.1506 10.5814 9.99511 10.5842C9.83967 10.5869 9.68924 10.5292 9.5755 10.4232L7.9995 8.84724L6.4235 10.4232C6.30976 10.5292 6.15932 10.5869 6.00388 10.5842C5.84844 10.5814 5.70013 10.5185 5.5902 10.4085C5.48027 10.2986 5.4173 10.1503 5.41456 9.99486C5.41181 9.83942 5.46951 9.68898 5.5755 9.57524L7.1515 7.99924L5.5755 6.42324C5.46314 6.31074 5.40002 6.15824 5.40002 5.99924C5.40002 5.84024 5.46314 5.68774 5.5755 5.57524Z" fill="white"/>
</svg>
