<svg width="16" height="16" viewBox="0 0 16 16" fill="none" xmlns="http://www.w3.org/2000/svg">
<path opacity="0.5" d="M15.9608 6.02613C15.9146 5.87741 15.8297 5.74519 15.7156 5.6444C15.6015 5.54362 15.4628 5.47828 15.3152 5.45578L10.756 4.7613L8.7176 0.429984C8.64798 0.295455 8.54392 0.183977 8.41714 0.108105C8.29036 0.0322332 8.14589 -0.00501933 8 0.00054316V13.6554L12.0776 15.9024C12.2097 15.9753 12.3586 16.0079 12.5075 15.9966C12.6564 15.9853 12.7993 15.9306 12.9201 15.8386C13.0408 15.7467 13.1346 15.6211 13.1909 15.4762C13.2472 15.3312 13.2636 15.1726 13.2384 15.0184L12.46 10.2576L15.7584 6.88585C15.8653 6.77661 15.9409 6.63821 15.9766 6.48628C16.0124 6.33435 16.0069 6.17496 15.9608 6.02613Z" fill="white"/>
<path d="M7.28263 0.430921L5.24423 4.76223L0.685032 5.45672C0.537272 5.47922 0.398466 5.54462 0.284316 5.64553C0.170167 5.74643 0.0852294 5.87882 0.0391138 6.02771C-0.00700186 6.1766 -0.0124555 6.33605 0.0233698 6.48802C0.0591951 6.63998 0.134869 6.77841 0.241832 6.88763L3.54023 10.2586L2.76183 15.0193C2.73673 15.1735 2.75323 15.3319 2.80945 15.4767C2.86568 15.6215 2.9594 15.747 3.08004 15.8389C3.20068 15.9309 3.34343 15.9856 3.49217 15.997C3.64092 16.0084 3.78974 15.976 3.92183 15.9034L8.00023 13.6555V0.0157394C7.85647 0.0132863 7.71459 0.0503169 7.5887 0.123152C7.46282 0.195987 7.3573 0.302091 7.28263 0.430921Z" fill="white"/>
</svg>
