<svg width="16" height="16" viewBox="0 0 16 16" fill="none" xmlns="http://www.w3.org/2000/svg">
<path d="M8.16143 3.18185C9.32148 3.1626 10.4425 3.59261 11.2811 4.37854L13.6214 2.08436C12.1449 0.723589 10.1879 -0.023308 8.16143 0.000554675C6.64852 0.000305169 5.16532 0.412355 3.8775 1.19068C2.58968 1.96901 1.54795 3.08297 0.868652 4.40813L3.59498 6.47994C3.90852 5.53103 4.51777 4.70242 5.33696 4.11077C6.15614 3.51912 7.14399 3.19423 8.16143 3.18185Z" fill="white"/>
<path d="M0.867832 4.40894C0.297172 5.52357 0 6.75346 0 8.00059C0 9.24773 0.297172 10.4776 0.867832 11.5922L3.59416 9.52045C3.25219 8.53494 3.25219 7.46625 3.59416 6.48074L0.867832 4.40894Z" fill="white"/>
<path opacity="0.5" d="M10.93 12.052C10.2991 12.449 9.58406 12.6995 8.83938 12.7844C8.09471 12.8693 7.34009 12.7864 6.63308 12.5419C5.92608 12.2975 5.28536 11.898 4.7598 11.3739C4.23425 10.8498 3.83773 10.215 3.60051 9.51782L0.875 11.5896C1.55417 12.9145 2.59565 14.0283 3.88316 14.8067C5.17066 15.585 6.65351 15.9972 8.16615 15.9972C10.1525 16.0497 12.0844 15.3564 13.5666 14.059L10.93 12.052Z" fill="white"/>
<path opacity="0.5" d="M15.8469 6.54614H8.16162V9.64025H12.5534C12.4625 10.1297 12.2713 10.596 11.9914 11.0109C11.7114 11.4259 11.3485 11.7808 10.9247 12.0544L13.562 14.0622C14.3653 13.3041 14.997 12.3889 15.4162 11.376C15.8354 10.3632 16.0328 9.27523 15.9954 8.18279C15.9954 7.63244 15.9459 7.08689 15.8469 6.54614Z" fill="white"/>
</svg>
