<svg width="24" height="24" viewBox="0 0 24 24" fill="none" xmlns="http://www.w3.org/2000/svg">
<path fill-rule="evenodd" clip-rule="evenodd" d="M21.7204 20.47L17.3504 16.1C18.5004 14.71 19.1904 12.94 19.1904 11C19.1904 6.58 15.6104 3 11.1904 3C6.77043 3 3.19043 6.58 3.19043 11C3.19043 15.41 6.77043 19 11.1904 19C13.1304 19 14.9104 18.31 16.2904 17.16L20.6604 21.53C20.8104 21.68 21.0004 21.75 21.1904 21.75C21.3804 21.75 21.5704 21.68 21.7204 21.53C22.0104 21.24 22.0104 20.76 21.7204 20.47ZM12.0004 13.25H8.00043C7.59043 13.25 7.25043 12.91 7.25043 12.5C7.25043 12.09 7.59043 11.75 8.00043 11.75H12.0004C12.4104 11.75 12.7504 12.09 12.7504 12.5C12.7504 12.91 12.4104 13.25 12.0004 13.25ZM14.0004 10.25H8.00043C7.59043 10.25 7.25043 9.91 7.25043 9.5C7.25043 9.09 7.59043 8.75 8.00043 8.75H14.0004C14.4104 8.75 14.7504 9.09 14.7504 9.5C14.7504 9.91 14.4104 10.25 14.0004 10.25Z" fill="white"/>
</svg>
