<svg width="198" height="33" viewBox="0 0 198 33" fill="none" xmlns="http://www.w3.org/2000/svg">
<path d="M113.337 14.712C113.866 14.2457 114.256 13.9878 114.515 13.6505C115.473 12.3906 116.322 11.0513 117.34 9.85088C118.547 8.45207 120.224 7.92628 122.041 7.89651C123.897 7.85683 124.626 8.88858 123.837 10.5751C123.248 11.8251 122.49 12.9858 121.791 14.1763C120.783 15.8826 119.785 17.589 118.737 19.2556C118.398 19.8013 118.408 20.208 118.757 20.7437C120.104 22.837 121.402 24.96 122.709 27.083C122.999 27.5493 123.298 28.0354 123.468 28.5513C123.957 30.0294 123.298 31.0612 121.741 31.2695C119.625 31.5572 117.759 31.0414 116.402 29.3251C115.523 28.214 114.785 26.9838 113.946 25.833C113.717 25.5156 113.347 25.2973 113.048 25.0394C112.948 25.1088 112.848 25.1683 112.749 25.2378C112.689 26.4084 112.709 27.5989 112.549 28.7596C112.429 29.5929 112.2 30.4759 111.77 31.1802C111.062 32.331 109.435 32.7675 108.167 32.3509C107.02 31.9739 106.321 30.9421 106.361 29.4541C106.451 25.7041 106.581 21.964 106.69 18.214C106.76 16.0017 106.79 13.7993 106.89 11.587C107 9.26556 108.088 7.81715 109.914 7.43024C111.93 7.00366 113.228 7.92628 113.327 9.96001C113.397 11.4084 113.337 12.8668 113.337 14.712Z" fill="white"/>
<path d="M186.06 24.987C186.06 26.0088 186.1 27.0306 186.06 28.0524C185.97 29.9076 185.012 30.6913 182.976 30.6417C181.31 30.602 180.282 29.5703 180.321 27.8143C180.391 24.6596 180.531 21.5048 180.641 18.36C180.641 18.1616 180.671 17.9631 180.681 17.7746C180.9 14.2826 183.895 12.7449 186.799 14.8282C188.076 15.7409 188.955 17.2092 190.023 18.4195C190.332 18.7667 190.631 19.1239 190.941 19.4711C191.071 19.4215 191.19 19.3619 191.32 19.3123C191.32 18.5485 191.27 17.7746 191.33 17.0108C191.45 15.4235 191.989 14.9572 193.596 14.9274C196.59 14.8679 197.518 15.7707 197.528 18.7568C197.528 21.5147 197.528 24.2826 197.528 27.0405C197.528 28.8858 196.879 30.4036 195.113 31.1675C193.246 31.981 191.37 31.6139 190.073 30.1556C188.915 28.856 188.186 27.1794 187.248 25.6814C187.038 25.3441 186.749 25.0564 186.499 24.7489C186.36 24.8282 186.22 24.9076 186.07 24.987H186.06Z" fill="white"/>
<path d="M97.9789 29.6623H93.797C92.8988 32.1226 93.3479 32.2119 90.4036 31.8349C90.1241 31.7953 89.8447 31.7953 89.5652 31.7655C87.5891 31.5968 86.4612 30.3171 87.0301 28.4718C88.1879 24.7516 89.4255 21.0413 90.8727 17.4302C91.731 15.2873 93.6673 14.1365 95.9828 13.7992C98.6077 13.4123 100.933 14.7615 101.722 17.3707C102.849 21.1008 103.808 24.8806 104.776 28.6603C105.145 30.1286 104.456 30.9421 102.959 31.0611C101.961 31.1405 100.963 31.1306 99.975 31.2695C98.7075 31.458 97.9489 31.1107 97.9789 29.6524V29.6623ZM97.2303 26.0215C96.9808 24.6127 96.7613 23.2536 96.5018 21.9143C96.4618 21.706 96.2123 21.5373 96.0626 21.3488C95.8929 21.5076 95.6135 21.6465 95.5636 21.8349C95.2143 23.2139 94.9148 24.6127 94.5855 26.0314H97.2303V26.0215Z" fill="black"/>
<path d="M61.2304 29.6627H57.1983C56.2501 32.1032 56.819 32.2223 53.6851 31.8254C53.4056 31.7858 53.1262 31.7858 52.8467 31.7659C50.9504 31.5873 49.8525 30.2977 50.4115 28.502C51.5692 24.7818 52.7968 21.0715 54.244 17.4604C55.1023 15.3175 57.0286 14.1568 59.3441 13.8096C61.9291 13.4227 64.2546 14.7024 65.043 17.252C66.2208 21.0516 67.1889 24.9108 68.167 28.7699C68.5163 30.1588 67.7977 30.9524 66.3505 31.0616C65.4323 31.131 64.5241 31.1905 63.6058 31.2401C62.3682 31.3195 61.5698 30.7937 61.2105 29.6627H61.2304ZM60.6216 26.0318C60.3721 24.5834 60.1525 23.2639 59.893 21.9544C59.8431 21.7262 59.5537 21.5377 59.384 21.3393C59.2343 21.5278 58.9948 21.6866 58.9449 21.8949C58.6055 23.254 58.2961 24.6131 57.9668 26.0318H60.6316H60.6216Z" fill="black"/>
<path d="M171.815 29.6713H167.663C167.613 29.8499 167.574 29.9987 167.534 30.1475C166.975 32.0424 166.835 32.1316 164.869 31.9035C164.43 31.8539 164 31.7943 163.561 31.7646C161.416 31.586 160.388 30.2467 161.036 28.1932C162.134 24.7408 163.272 21.2983 164.549 17.9154C165.418 15.6138 167.274 14.2745 169.719 13.8182C172.394 13.3221 174.849 14.7011 175.668 17.3896C176.796 21.1197 177.754 24.8995 178.712 28.6693C179.081 30.1078 178.373 30.9312 176.875 31.0503C175.927 31.1197 174.969 31.1892 174.021 31.2388C172.863 31.3049 172.131 30.7791 171.825 29.6614L171.815 29.6713ZM171.167 26.0205C170.917 24.6019 170.707 23.3221 170.448 22.0523C170.398 21.7943 170.159 21.5761 170.009 21.3479C169.819 21.5463 169.53 21.715 169.47 21.9531C169.121 23.2824 168.831 24.6217 168.512 26.0305H171.167V26.0205Z" fill="white"/>
<path d="M137.677 29.6696H133.545C132.919 31.29 131.742 32.0076 130.012 31.8224C129.772 31.7927 129.533 31.7927 129.293 31.7728C127.317 31.6042 126.179 30.3244 126.748 28.499C127.906 24.7788 129.133 21.0784 130.581 17.4573C131.439 15.3145 133.365 14.1637 135.671 13.8065C138.286 13.4097 140.631 14.749 141.42 17.3482C142.567 21.1081 143.535 24.9276 144.494 28.747C144.843 30.1359 144.134 30.9494 142.707 31.0685C141.759 31.1478 140.791 31.1478 139.853 31.2768C138.575 31.4454 137.597 31.2867 137.657 29.6796L137.677 29.6696ZM134.293 26.0188H136.948C136.709 24.63 136.489 23.3105 136.23 22.001C136.18 21.7629 135.91 21.5645 135.741 21.3462C135.571 21.5645 135.311 21.7629 135.242 22.001C134.912 23.2907 134.623 24.6002 134.303 26.0089L134.293 26.0188Z" fill="white"/>
<path d="M82.3571 25.8432C82.8761 26.4186 83.3552 26.8849 83.7644 27.4206C84.463 28.3135 84.3333 29.1666 83.445 29.8809C81.5587 31.3889 80.2512 31.2996 78.6044 29.5139C77.9856 28.8492 77.3968 28.1448 76.758 27.5099C76.5185 27.2718 76.1592 27.1428 75.6601 26.8452C75.6601 27.7777 75.6801 28.4424 75.6601 29.1071C75.6002 31.1408 74.8916 31.8055 72.7757 31.7758C70.8195 31.7559 69.7017 30.7639 69.7516 28.9285C69.8215 26.1309 69.9712 23.3333 70.1309 20.5357C70.1808 19.5535 70.2207 18.5416 70.5001 17.619C71.099 15.6349 72.3565 14.1468 74.5523 13.9484C76.5883 13.7599 78.7042 13.5615 80.6804 13.9087C83.2554 14.3651 85.2315 15.992 85.7006 18.6805C86.2096 21.6567 85.022 24.0674 82.3871 25.8432H82.3571ZM75.74 22.4702C76.9776 22.2222 78.0255 22.0734 79.0336 21.7758C79.353 21.6766 79.7222 21.1706 79.7222 20.8531C79.7222 20.5258 79.353 20 79.0436 19.9107C78.0555 19.623 77.0275 19.5039 75.9695 19.3154C75.8897 20.4464 75.8198 21.2996 75.74 22.4702Z" fill="black"/>
<path d="M46.3075 14.711C46.3075 18.6197 46.3075 22.3995 46.3075 26.1793C46.3075 26.6554 46.3174 27.1316 46.2675 27.5979C46.048 29.6812 44.6008 30.9213 42.4849 30.8717C40.5985 30.8221 39.3609 29.5523 39.331 27.4491C39.2811 23.709 39.311 19.959 39.3011 16.2189C39.3011 15.832 39.3011 15.4451 39.3011 14.959C38.1733 14.959 37.1453 15.0483 36.1372 14.9293C35.5583 14.8598 34.7898 14.6118 34.5203 14.1852C33.6421 12.8062 33.6421 11.2785 34.2808 9.78044C34.8497 8.461 36.0174 8.1733 37.3249 8.14354C40.7882 8.06417 44.2515 7.96497 47.7147 7.89552C49.5112 7.85584 50.4993 8.55029 50.8886 10.2765C51.0782 11.1495 51.1281 12.092 51.0083 12.965C50.8686 14.0364 50.1899 14.7408 48.9823 14.7308C48.074 14.7308 47.1558 14.7308 46.3075 14.7308V14.711Z" fill="black"/>
<path d="M153.643 25.3646C154.751 25.3646 155.58 25.3051 156.398 25.3844C156.917 25.444 157.586 25.5729 157.895 25.9301C158.913 27.1007 158.694 28.5194 158.304 29.8487C157.945 31.0491 156.977 31.5452 155.719 31.5352C153.494 31.5154 151.258 31.5452 149.032 31.5253C147.356 31.5055 146.347 30.563 146.248 28.9162C146.118 26.694 146.856 24.819 148.573 23.3507C149.651 22.4281 150.749 21.5253 152.096 20.3944C150.779 20.3944 149.731 20.4142 148.683 20.3944C146.876 20.3646 145.988 19.3329 146.008 17.3686C146.028 15.5333 146.996 14.4916 148.723 14.4817C151.228 14.4618 153.743 14.4717 156.248 14.4817C157.865 14.4817 158.853 15.3944 158.963 17.0015C159.113 18.9956 158.484 20.7416 157.057 22.1602C156.019 23.192 154.921 24.1642 153.623 25.3745L153.643 25.3646Z" fill="white"/>
<path d="M13.2164 11.9242V19.1266H5.89062V11.9242H13.2164ZM11.7193 17.7278V13.5611H7.54741V17.7278H11.7193Z" fill="black"/>
<path d="M14.2812 11.8932H21.5372V19.1253H14.2812V11.8932ZM20.1199 17.7464V13.5797H15.938V17.7464H20.1199Z" fill="black"/>
<path d="M21.5836 20.4458V27.668H14.2578V20.4458H21.5836ZM15.9346 22.0827V26.2494H20.1264V22.0827H15.9346Z" fill="black"/>
<path d="M13.7151 7.31796C12.1282 6.53423 10.4115 5.93899 8.97434 4.93701C7.21775 3.71677 7.22773 1.9509 8.70486 0.621535C9.63306 -0.211799 10.5712 -0.23164 11.4196 0.71082C12.8169 2.26836 13.3758 4.19296 13.7151 6.19693C13.7151 6.57392 13.7151 6.9509 13.7151 7.32788V7.31796ZM12.228 5.92907C12.3877 5.80011 12.5374 5.68106 12.6971 5.55209C12.1282 4.28225 11.6491 2.9628 10.9705 1.76241C10.3916 0.750503 9.48335 0.790185 9.02424 1.86161C8.79469 2.37749 8.87453 3.36955 9.23384 3.73661C10.1021 4.59971 11.22 5.21479 12.238 5.939L12.228 5.92907Z" fill="white"/>
<path d="M7.5611 31.0911V32.4304C6.35344 32.4304 5.20567 32.4998 4.06788 32.4106C2.29133 32.2816 1.02379 30.734 0.914006 28.6804C0.884064 28.1248 0.953928 27.5693 0.904025 27.0237C0.794238 25.853 1.36313 25.6645 2.461 26.0117C2.461 27.0137 2.461 28.0256 2.461 29.0375C2.47098 30.3074 3.13968 30.9919 4.42718 31.0614C4.94618 31.0911 5.46517 31.0614 5.98416 31.0614C6.46323 31.0614 6.9423 31.0614 7.55112 31.0614L7.5611 31.0911Z" fill="white"/>
<path d="M7.56009 7.32824V8.54848C6.58199 8.54848 5.64381 8.52864 4.70564 8.54848C3.16862 8.58816 2.46998 9.30245 2.46998 10.8104C2.46998 11.6735 2.46 12.5465 2.44003 13.4096C2.44003 13.479 2.38015 13.5485 2.32027 13.6874H1.10263C0.413969 8.53856 1.75137 6.69332 7.55011 7.32824H7.56009Z" fill="white"/>
<path d="M19.8516 31.0996C20.9794 31.0996 21.9774 31.1194 22.9655 31.0996C24.3927 31.0599 25.0515 30.3754 25.0614 28.9766C25.0614 28.3119 25.0614 27.6373 25.0614 26.9726C25.0714 25.8417 25.0814 25.8417 26.3589 26.0202C26.3589 27.3 26.4388 28.5897 26.339 29.8694C26.2292 31.1591 24.9916 32.2405 23.5943 32.429C23.3248 32.4686 23.0354 32.4488 22.7659 32.4488C21.8277 32.4488 20.8796 32.4488 19.8615 32.4488V31.1095L19.8516 31.0996Z" fill="white"/>
<path d="M26.4123 13.7187H25.0749C25.0749 12.7068 25.0749 11.7346 25.0749 10.7624C25.0749 9.31397 24.3962 8.58976 22.9191 8.55008C21.931 8.52032 20.9429 8.55008 19.875 8.55008V7.31992C21.1924 7.31992 22.46 7.23063 23.7175 7.33976C25.1547 7.45881 26.2426 8.66913 26.3824 10.0779C26.4123 10.3854 26.4123 10.7029 26.4123 11.0203C26.4123 11.8834 26.4123 12.7366 26.4123 13.7187Z" fill="white"/>
<path d="M13.7188 7.31986C13.7188 6.94287 13.7188 6.56589 13.7188 6.18891C13.9084 6.0401 14.1779 5.93097 14.2677 5.73256C14.7567 4.75041 15.0961 3.67899 15.675 2.76629C16.4435 1.55597 17.5114 1.427 18.4795 2.26034C19.5375 3.16311 19.6572 4.29407 18.6192 5.20676C17.2419 6.427 15.6151 7.21073 13.7188 7.32978V7.31986ZM15.3256 5.63335C15.4354 5.73256 15.5452 5.83176 15.645 5.93097C16.4035 5.45478 17.2419 5.04803 17.8807 4.4528C18.1102 4.23454 17.8807 3.53018 17.8507 3.05399C17.4116 3.13335 16.7628 3.05399 16.5732 3.31192C16.0542 4.01629 15.7249 4.85954 15.3156 5.64327L15.3256 5.63335Z" fill="white"/>
<path d="M8.27816 22.9243H5.88281V20.6823H8.24822C8.24822 21.4263 8.24822 22.1902 8.24822 22.964L8.27816 22.9243Z" fill="black"/>
<path d="M10.6784 23.0533V20.6823H12.944V23.0235C12.1855 23.0235 11.4169 23.0235 10.6484 23.0235L10.6884 23.0533H10.6784Z" fill="black"/>
<path d="M10.6206 25.3467H8.19531L8.22525 25.3764C8.23523 24.5629 8.2552 23.7494 8.26518 22.926L8.23523 22.9657C9.04367 22.9955 9.8521 23.0252 10.6705 23.055L10.6306 23.0252C10.6206 23.809 10.6006 24.6026 10.5807 25.3863L10.6106 25.3566L10.6206 25.3467Z" fill="black"/>
<path d="M8.20048 25.3441V27.6556H5.875V25.3838C6.68343 25.3838 7.46192 25.3838 8.24041 25.3838L8.21046 25.354L8.20048 25.3441Z" fill="black"/>
<path d="M10.5938 25.3761H12.9192V27.6777H10.6237C10.6237 26.8741 10.6237 26.1102 10.6237 25.3364L10.5938 25.3662V25.3761Z" fill="black"/>
<path d="M18.9436 14.7919V16.5577H17.1172V14.7919H18.9436Z" fill="black"/>
<path d="M17.1641 23.2709H18.9406V25.0764H17.1641V23.2709Z" fill="black"/>
</svg>
