<svg width="43" height="43" viewBox="0 0 43 43" fill="none" xmlns="http://www.w3.org/2000/svg">
<g clip-path="url(#clip0_109_2890)">
<path fill-rule="evenodd" clip-rule="evenodd" d="M21.9999 1.99993C33.0457 1.99993 42 10.9543 42 21.9999C42 33.0455 33.0457 41.9999 21.9999 41.9999C10.9542 41.9999 1.99989 33.0455 1.99989 21.9999C1.99989 10.9543 10.9542 1.99993 21.9999 1.99993Z" fill="#E2F0FB"/>
<path d="M29.928 18.988C28.712 20.0973 27.528 21.388 26.376 22.86C25.3733 24.1293 24.472 25.4307 23.672 26.764C22.9467 27.9587 22.4187 28.9827 22.088 29.836C22.0773 29.868 22.056 29.8947 22.024 29.916C21.992 29.948 21.9547 29.964 21.912 29.964C21.9013 29.9747 21.8907 29.98 21.88 29.98C21.8053 29.98 21.752 29.9587 21.72 29.916L16.008 24.108C15.9973 24.0973 16.136 23.9587 16.424 23.692C16.712 23.4147 16.9947 23.164 17.272 22.94C17.5813 22.684 17.7467 22.5667 17.768 22.588L20.904 25.052C21.8213 23.9747 22.8507 22.908 23.992 21.852C25.7093 20.2733 27.48 18.9293 29.304 17.82C29.336 17.82 29.4587 17.9693 29.672 18.268L29.992 18.732C30.0027 18.7747 30.0027 18.8227 29.992 18.876C29.9813 18.9187 29.96 18.956 29.928 18.988Z" fill="#0088FF"/>
</g>
<defs>
<clipPath id="clip0_109_2890">
<rect width="43" height="43" fill="white"/>
</clipPath>
</defs>
</svg>
