<svg width="90" height="86" viewBox="0 0 90 86" fill="none" xmlns="http://www.w3.org/2000/svg">
<path d="M88.2312 64.1849L58.4999 8.58195C52.7399 -2.19105 37.2644 -2.19105 31.4999 8.58195L1.76875 64.1849C-3.51425 74.0668 3.65892 86.0004 14.8864 86.0004H75.1135C86.3365 86.0004 93.5142 74.0624 88.2312 64.1849ZM41.6249 32.0004C41.6249 30.1374 43.1369 28.6254 44.9999 28.6254C46.8629 28.6254 48.3749 30.1374 48.3749 32.0004V50.0004C48.3749 51.8634 46.8629 53.3754 44.9999 53.3754C43.1369 53.3754 41.6249 51.8634 41.6249 50.0004V32.0004ZM45.09 68.0004C42.606 68.0004 40.567 65.9844 40.567 63.5004C40.567 61.0164 42.561 59.0004 45.045 59.0004H45.09C47.5785 59.0004 49.59 61.0164 49.59 63.5004C49.59 65.9844 47.574 68.0004 45.09 68.0004Z" fill="#FEB705"/>
</svg>
