<svg width="34" height="35" viewBox="0 0 34 35" fill="none" xmlns="http://www.w3.org/2000/svg">
<path d="M33.5 19.8333V29C33.5 32.6666 31.6667 34.5 28 34.5H6C2.33333 34.5 0.5 32.6666 0.5 29V19.8333C0.5 16.1666 2.33333 14.3333 6 14.3333H15.625V25.3333C15.625 26.0923 16.241 26.7083 17 26.7083C17.759 26.7083 18.375 26.0923 18.375 25.3333V14.3333H28C31.6667 14.3333 33.5 16.1666 33.5 19.8333ZM18.375 4.8201L21.5283 7.97349C21.7959 8.24116 22.148 8.37677 22.5 8.37677C22.852 8.37677 23.2041 8.24299 23.4717 7.97349C24.0089 7.43633 24.0089 6.56543 23.4717 6.02826L17.9717 0.528262C17.8452 0.401762 17.6928 0.300952 17.5241 0.231285C17.1886 0.0919519 16.8091 0.0919519 16.4736 0.231285C16.305 0.300952 16.153 0.401762 16.0265 0.528262L10.5265 6.02826C9.98932 6.56543 9.98932 7.43633 10.5265 7.97349C11.0637 8.51066 11.9346 8.51066 12.4717 7.97349L15.625 4.8201V14.3333H18.375V4.8201Z" fill="white"/>
</svg>
