<svg width="56" height="56" viewBox="0 0 56 56" fill="none" xmlns="http://www.w3.org/2000/svg">
<path fill-rule="evenodd" clip-rule="evenodd" d="M0 12C0 5.37258 5.37258 0 12 0H44C50.6274 0 56 5.37258 56 12V44C56 50.6274 50.6274 56 44 56H12C5.37258 56 0 50.6274 0 44V12Z" fill="url(#paint0_linear_123_283)"/>
<path d="M27.999 29.2C31.1934 29.2 34.0985 30.0327 36.2356 31.205C37.3022 31.7929 38.2141 32.4829 38.8728 33.2328C39.5207 33.972 39.998 34.8551 39.998 35.7994C39.998 36.8133 39.45 37.6124 38.6608 38.1824C37.9142 38.7224 36.9289 39.0799 35.8823 39.3295C33.7785 39.8299 30.9707 39.999 27.999 39.999C25.0272 39.999 22.2195 39.8311 20.1157 39.3295C19.0691 39.0799 18.0838 38.7224 17.3372 38.1824C16.5466 37.6112 16 36.8133 16 35.7994C16 34.8551 16.4773 33.972 17.1252 33.2328C17.7839 32.4829 18.6944 31.7929 19.7624 31.205C21.8995 30.0327 24.8059 29.2 27.999 29.2Z" fill="white"/>
<path opacity="0.3" d="M27.9995 16C32.6109 16 35.4935 21 33.1872 24.9992C32.6615 25.9113 31.9053 26.6686 30.9946 27.1952C30.084 27.7217 29.051 27.999 27.9995 27.999C23.3881 27.999 20.5055 22.999 22.8118 18.9997C23.3375 18.0877 24.0937 17.3304 25.0044 16.8038C25.915 16.2773 26.948 16 27.9995 16Z" fill="white"/>
<defs>
<linearGradient id="paint0_linear_123_283" x1="-2.84035e-06" y1="56" x2="-11.4473" y2="24.5483" gradientUnits="userSpaceOnUse">
<stop stop-color="#FE7A00"/>
<stop offset="1" stop-color="#FF9600"/>
</linearGradient>
</defs>
</svg>
