<svg width="16" height="16" viewBox="0 0 16 16" fill="none" xmlns="http://www.w3.org/2000/svg">
<path opacity="0.5" d="M0 11.3733C0 9.19271 -4.76837e-08 8.10162 0.7032 7.42461C1.4056 6.74683 2.5376 6.74683 4.8 6.74683H11.2C13.4624 6.74683 14.5944 6.74683 15.2968 7.42461C16 8.10162 16 9.19271 16 11.3733C16 13.554 16 14.645 15.2968 15.3221C14.5944 15.9998 13.4624 15.9998 11.2 15.9998H4.8C2.5376 15.9998 1.4056 15.9998 0.7032 15.3221C-4.76837e-08 14.645 0 13.554 0 11.3733Z" fill="white"/>
<path d="M3.79998 5.20482C3.79998 4.13117 4.24247 3.1015 5.03013 2.34231C5.81778 1.58313 6.88607 1.15663 7.99998 1.15663C9.11388 1.15663 10.1822 1.58313 10.9698 2.34231C11.7575 3.1015 12.2 4.13117 12.2 5.20482V6.75007C12.6536 6.75393 13.0512 6.76395 13.4 6.78863V5.20482C13.4 3.82442 12.831 2.50055 11.8184 1.52446C10.8057 0.548363 9.43214 0 7.99998 0C6.56781 0 5.1943 0.548363 4.1816 1.52446C3.1689 2.50055 2.59998 3.82442 2.59998 5.20482V6.7894C2.99945 6.76423 3.39965 6.75112 3.79998 6.75007V5.20482Z" fill="white"/>
</svg>
