<svg width="56" height="56" viewBox="0 0 56 56" fill="none" xmlns="http://www.w3.org/2000/svg">
<path fill-rule="evenodd" clip-rule="evenodd" d="M0 12C0 5.37258 5.37258 0 12 0H44C50.6274 0 56 5.37258 56 12V44C56 50.6274 50.6274 56 44 56H12C5.37258 56 0 50.6274 0 44V12Z" fill="url(#paint0_linear_123_292)"/>
<path d="M21.0005 36.9985H35.0005V38.9985C35.0005 39.5508 34.5528 39.9985 34.0005 39.9985H22.0005C21.4482 39.9985 21.0005 39.5508 21.0005 38.9985V36.9985Z" fill="white"/>
<path d="M21.0005 16.9985C21.0005 16.4463 21.4482 15.9985 22.0005 15.9985H34.0005C34.5528 15.9985 35.0005 16.4463 35.0005 16.9985V17.9985H21.0005V16.9985Z" fill="white"/>
<rect opacity="0.3" x="21.0005" y="17.9985" width="14" height="19" fill="white"/>
<path d="M28.0005 20.9985C28.5528 20.9985 29.0005 20.5508 29.0005 19.9985C29.0005 19.4463 28.5528 18.9985 28.0005 18.9985C27.4482 18.9985 27.0005 19.4463 27.0005 19.9985C27.0005 20.5508 27.4482 20.9985 28.0005 20.9985Z" fill="white"/>
<defs>
<linearGradient id="paint0_linear_123_292" x1="-2.84035e-06" y1="56" x2="-11.4473" y2="24.5483" gradientUnits="userSpaceOnUse">
<stop stop-color="#FE7A00"/>
<stop offset="1" stop-color="#FF9600"/>
</linearGradient>
</defs>
</svg>
