<svg width="16" height="17" viewBox="0 0 16 17" fill="none" xmlns="http://www.w3.org/2000/svg">
<path d="M1 5.36353H15V13.1211C15 14.95 15 15.8634 14.414 16.4316C13.828 16.9999 12.886 16.9999 11 16.9999H5C3.114 16.9999 2.172 16.9999 1.586 16.4316C1 15.8634 1 14.95 1 13.1211V5.36353Z" fill="#FF9600" fill-opacity="0.25"/>
<path d="M5.5 6.81818L3.66 5.62933C2.935 5.16 2.5 4.37067 2.5 3.52703C2.5 2.13164 3.683 1 5.124 1C5.77469 1.00004 6.40269 1.23189 6.88867 1.65147C7.37465 2.07105 7.68473 2.64914 7.76 3.27588L8 5.36364L8.24 3.27588C8.31527 2.64914 8.62535 2.07105 9.11133 1.65147C9.59731 1.23189 10.2253 1.00004 10.876 1C12.316 1 13.499 2.13164 13.499 3.52703C13.499 4.37067 13.064 5.16 12.339 5.62933L10.5 6.81818" stroke="#FF9600" stroke-linecap="round"/>
<path d="M15 5.36353H1C0.447715 5.36353 0 5.79767 0 6.33322V7.30292C0 7.83847 0.447715 8.27262 1 8.27262H15C15.5523 8.27262 16 7.83847 16 7.30292V6.33322C16 5.79767 15.5523 5.36353 15 5.36353Z" fill="#FF9600"/>
<path d="M8 8.27271V12.1515" stroke="#FF9600" stroke-linecap="round"/>
</svg>
